<svg xmlns="http://www.w3.org/2000/svg" width="48" height="48" style=""><rect id="backgroundrect" width="100%" height="100%" x="0" y="0" fill="none" stroke="none"/><title>ic_slow_motion_video_48px</title>
    
<g class="currentLayer" style=""><title>Layer 1</title><rect data-element="frame" x="0" y="0" width="48" height="48" rx="48" ry="48" stroke="none" fill="#1c1e23" id="svg_1"/><g class="nc-icon-wrapper" fill="#b1b7c2" id="svg_2">
        <path fill="#b1b7c2" d="M26.1 19.58L20 15v18l6.1-4.58L32 24zm0 0L20 15v18l6.1-4.58L32 24zm0 0L20 15v18l6.1-4.58L32 24zM22 8.14V4.1c-4.02.4-7.68 2-10.64 4.42l2.84 2.86c2.22-1.72 4.88-2.88 7.8-3.24zM11.38 14.2l-2.86-2.84C6.1 14.32 4.5 17.98 4.1 22h4.04c.36-2.92 1.52-5.58 3.24-7.8zM8.14 26H4.1c.4 4.02 2 7.68 4.42 10.64l2.86-2.86C9.66 31.58 8.5 28.92 8.14 26zm3.22 13.48C14.32 41.9 18 43.5 22 43.9v-4.04c-2.92-.36-5.58-1.52-7.8-3.24l-2.84 2.86zM44 24c0 10.32-7.84 18.84-17.9 19.9v-4.04C33.94 38.82 40 32.1 40 24S33.94 9.18 26.1 8.14V4.1C36.16 5.16 44 13.68 44 24z" id="svg_3"/>
    </g><path fill="#1c1e23" fill-opacity="1" stroke="none" stroke-opacity="1" stroke-width="1" stroke-dasharray="none" stroke-linejoin="miter" stroke-linecap="butt" stroke-dashoffset="" fill-rule="nonzero" opacity="1" marker-start="" marker-mid="" marker-end="" d="M9.297298210269112,23.918918455628443 C9.297298210269112,15.840675231657315 15.840675284949725,9.297298220240705 23.918918587024564,9.297298220240705 C31.997161889099388,9.297298220240705 38.540538963779994,15.840675231657315 38.540538963779994,23.918918455628443 C38.540538963779994,31.997161679599564 31.997161889099388,38.54053869101618 23.918918587024564,38.54053869101618 C15.840675284949725,38.54053869101618 9.297298210269112,31.997161679599564 9.297298210269112,23.918918455628443 z" id="svg_4" class=""/><rect fill="#b1b7c2" stroke-dashoffset="" fill-rule="nonzero" x="17.04504584439559" y="17.08108162639759" width="14.594594097781936" height="13.954689235011429" style="color: rgb(177, 183, 194);" class="" id="svg_6" rx="2" ry="2"/></g></svg>